<?xml version="1.0" encoding="UTF-8"?>
<svg id="Layer_1" data-name="Layer 1" xmlns="http://www.w3.org/2000/svg" viewBox="0 0 85.04 109.04">
  <defs>
    <style>
      .cls-1 {
        fill: #eb008b;
      }
    </style>
  </defs>
  <path class="cls-1" d="M20.74,18.5c-1.37-3-3.32-5.3-6.29-5.04-2.28.2-3.51,1.65-3.14,3.75,1.55,8.86,21.14,5.93,24.07,22.66,1.59,9.07-3.81,14.78-13.57,15.64-9.48.84-14.93-3-18.16-12.21l10.3-2.96c1.17,3.86,3.17,6.09,6.7,5.78,2.56-.23,4.27-1.72,3.79-4.44C22.82,32.41,3.18,35.41.23,18.6-1.13,10.79,3.55,5,12.61,4.2c9.41-.83,14.41,3.62,17.65,11.33l-9.53,2.96Z"/>
  <path class="cls-1" d="M55.98,1.01l11.49-1.01,5.82,33.27c2,11.44-2.08,17.82-13.78,18.85-11.56,1.02-17.3-4.49-19.3-15.93L34.38,2.92l11.63-1.03,6.1,34.87c.73,4.18,2.72,5.92,5.91,5.64,3.18-.28,4.79-2.33,4.06-6.52L55.98,1.01Z"/>
  <path class="cls-1" d="M30.08,57.81l11.49-1.01,5.82,33.27c2,11.44-2.08,17.82-13.78,18.85-11.56,1.02-17.3-4.49-19.3-15.93l-5.82-33.27,11.63-1.03,6.1,34.87c.73,4.18,2.72,5.92,5.91,5.64,3.18-.28,4.79-2.33,4.06-6.52l-6.1-34.87Z"/>
  <path class="cls-1" d="M70.13,68.66c-1.37-3-3.32-5.3-6.29-5.04-2.28.2-3.51,1.65-3.14,3.75,1.55,8.86,21.14,5.93,24.07,22.67,1.59,9.07-3.81,14.78-13.57,15.64-9.48.84-14.93-3-18.16-12.21l10.3-2.96c1.17,3.86,3.17,6.09,6.7,5.78,2.56-.23,4.27-1.72,3.79-4.44-1.62-9.28-21.27-6.27-24.21-23.08-1.37-7.81,3.31-13.61,12.38-14.4,9.41-.83,14.41,3.62,17.66,11.33l-9.53,2.97Z"/>
</svg>